<?xml version="1.0" encoding="UTF-8" standalone="no"?><svg xmlns="http://www.w3.org/2000/svg" xmlns:xlink="http://www.w3.org/1999/xlink" contentScriptType="application/ecmascript" contentStyleType="text/css" height="979px" preserveAspectRatio="none" style="width:827px;height:979px;background:#FFFFFF;" version="1.1" viewBox="0 0 827 979" width="827px" zoomAndPan="magnify"><defs><filter height="300%" id="f169osgj4glqk6" width="300%" x="-1" y="-1"><feGaussianBlur result="blurOut" stdDeviation="2.0"/><feColorMatrix in="blurOut" result="blurOut2" type="matrix" values="0 0 0 0 0 0 0 0 0 0 0 0 0 0 0 0 0 0 .4 0"/><feOffset dx="4.0" dy="4.0" in="blurOut2" result="blurOut3"/><feBlend in="SourceGraphic" in2="blurOut3" mode="normal"/></filter></defs><g><rect fill="#FFFFFF" filter="url(#f169osgj4glqk6)" height="443.3477" style="stroke:#A80036;stroke-width:1.0;" width="10" x="323.5" y="442.5254"/><line style="stroke:#A80036;stroke-width:1.0;stroke-dasharray:5.0,5.0;" x1="23" x2="23" y1="88.4883" y2="894.873"/><line style="stroke:#A80036;stroke-width:1.0;stroke-dasharray:5.0,5.0;" x1="124" x2="124" y1="88.4883" y2="894.873"/><line style="stroke:#A80036;stroke-width:1.0;stroke-dasharray:5.0,5.0;" x1="328.5" x2="328.5" y1="88.4883" y2="894.873"/><line style="stroke:#A80036;stroke-width:1.0;stroke-dasharray:5.0,5.0;" x1="471" x2="471" y1="88.4883" y2="894.873"/><line style="stroke:#A80036;stroke-width:1.0;stroke-dasharray:5.0,5.0;" x1="559" x2="559" y1="88.4883" y2="894.873"/><line style="stroke:#A80036;stroke-width:1.0;stroke-dasharray:5.0,5.0;" x1="657" x2="657" y1="88.4883" y2="894.873"/><line style="stroke:#A80036;stroke-width:1.0;stroke-dasharray:5.0,5.0;" x1="733" x2="733" y1="88.4883" y2="894.873"/><line style="stroke:#A80036;stroke-width:1.0;stroke-dasharray:5.0,5.0;" x1="792" x2="792" y1="88.4883" y2="894.873"/><text fill="#000000" font-family="sans-serif" font-size="14" lengthAdjust="spacing" textLength="31" x="5" y="85.5352">User</text><ellipse cx="23.5" cy="15" fill="#FEFECE" filter="url(#f169osgj4glqk6)" rx="8" ry="8" style="stroke:#A80036;stroke-width:2.0;"/><path d="M23.5,23 L23.5,50 M10.5,31 L36.5,31 M23.5,50 L10.5,65 M23.5,50 L36.5,65 " fill="none" filter="url(#f169osgj4glqk6)" style="stroke:#A80036;stroke-width:2.0;"/><text fill="#000000" font-family="sans-serif" font-size="14" lengthAdjust="spacing" textLength="31" x="5" y="907.4082">User</text><ellipse cx="23.5" cy="920.3613" fill="#FEFECE" filter="url(#f169osgj4glqk6)" rx="8" ry="8" style="stroke:#A80036;stroke-width:2.0;"/><path d="M23.5,928.3613 L23.5,955.3613 M10.5,936.3613 L36.5,936.3613 M23.5,955.3613 L10.5,970.3613 M23.5,955.3613 L36.5,970.3613 " fill="none" filter="url(#f169osgj4glqk6)" style="stroke:#A80036;stroke-width:2.0;"/><text fill="#000000" font-family="sans-serif" font-size="14" lengthAdjust="spacing" textLength="105" x="69" y="85.5352">Embedded web</text><ellipse cx="124.5" cy="56" fill="#FEFECE" filter="url(#f169osgj4glqk6)" rx="12" ry="12" style="stroke:#A80036;stroke-width:2.0;"/><line style="stroke:#A80036;stroke-width:2.0;" x1="112.5" x2="136.5" y1="70" y2="70"/><text fill="#000000" font-family="sans-serif" font-size="14" lengthAdjust="spacing" textLength="105" x="69" y="907.4082">Embedded web</text><ellipse cx="124.5" cy="926.3613" fill="#FEFECE" filter="url(#f169osgj4glqk6)" rx="12" ry="12" style="stroke:#A80036;stroke-width:2.0;"/><line style="stroke:#A80036;stroke-width:2.0;" x1="112.5" x2="136.5" y1="940.3613" y2="940.3613"/><text fill="#000000" font-family="sans-serif" font-size="14" lengthAdjust="spacing" textLength="44" x="303.5" y="85.5352">IMSLib</text><ellipse cx="328.5" cy="56" fill="#FEFECE" filter="url(#f169osgj4glqk6)" rx="12" ry="12" style="stroke:#A80036;stroke-width:2.0;"/><line style="stroke:#A80036;stroke-width:2.0;" x1="316.5" x2="340.5" y1="70" y2="70"/><text fill="#000000" font-family="sans-serif" font-size="14" lengthAdjust="spacing" textLength="44" x="303.5" y="907.4082">IMSLib</text><ellipse cx="328.5" cy="926.3613" fill="#FEFECE" filter="url(#f169osgj4glqk6)" rx="12" ry="12" style="stroke:#A80036;stroke-width:2.0;"/><line style="stroke:#A80036;stroke-width:2.0;" x1="316.5" x2="340.5" y1="940.3613" y2="940.3613"/><text fill="#000000" font-family="sans-serif" font-size="14" lengthAdjust="spacing" textLength="57" x="440" y="85.5352">Backend</text><path d="M451,44 L451,68 M451,56 L468,56 " fill="none" filter="url(#f169osgj4glqk6)" style="stroke:#A80036;stroke-width:2.0;"/><ellipse cx="480" cy="56" fill="#FEFECE" filter="url(#f169osgj4glqk6)" rx="12" ry="12" style="stroke:#A80036;stroke-width:2.0;"/><text fill="#000000" font-family="sans-serif" font-size="14" lengthAdjust="spacing" textLength="57" x="440" y="907.4082">Backend</text><path d="M451,914.3613 L451,938.3613 M451,926.3613 L468,926.3613 " fill="none" filter="url(#f169osgj4glqk6)" style="stroke:#A80036;stroke-width:2.0;"/><ellipse cx="480" cy="926.3613" fill="#FEFECE" filter="url(#f169osgj4glqk6)" rx="12" ry="12" style="stroke:#A80036;stroke-width:2.0;"/><text fill="#000000" font-family="sans-serif" font-size="14" lengthAdjust="spacing" textLength="86" x="513" y="85.5352">Desktop app</text><path d="M538.5,44 L538.5,68 M538.5,56 L555.5,56 " fill="none" filter="url(#f169osgj4glqk6)" style="stroke:#A80036;stroke-width:2.0;"/><ellipse cx="567.5" cy="56" fill="#FEFECE" filter="url(#f169osgj4glqk6)" rx="12" ry="12" style="stroke:#A80036;stroke-width:2.0;"/><text fill="#000000" font-family="sans-serif" font-size="14" lengthAdjust="spacing" textLength="86" x="513" y="907.4082">Desktop app</text><path d="M538.5,914.3613 L538.5,938.3613 M538.5,926.3613 L555.5,926.3613 " fill="none" filter="url(#f169osgj4glqk6)" style="stroke:#A80036;stroke-width:2.0;"/><ellipse cx="567.5" cy="926.3613" fill="#FEFECE" filter="url(#f169osgj4glqk6)" rx="12" ry="12" style="stroke:#A80036;stroke-width:2.0;"/><text fill="#000000" font-family="sans-serif" font-size="14" lengthAdjust="spacing" textLength="78" x="615" y="85.5352">IMSLib CDN</text><path d="M636.5,44 L636.5,68 M636.5,56 L653.5,56 " fill="none" filter="url(#f169osgj4glqk6)" style="stroke:#A80036;stroke-width:2.0;"/><ellipse cx="665.5" cy="56" fill="#FEFECE" filter="url(#f169osgj4glqk6)" rx="12" ry="12" style="stroke:#A80036;stroke-width:2.0;"/><text fill="#000000" font-family="sans-serif" font-size="14" lengthAdjust="spacing" textLength="78" x="615" y="907.4082">IMSLib CDN</text><path d="M636.5,914.3613 L636.5,938.3613 M636.5,926.3613 L653.5,926.3613 " fill="none" filter="url(#f169osgj4glqk6)" style="stroke:#A80036;stroke-width:2.0;"/><ellipse cx="665.5" cy="926.3613" fill="#FEFECE" filter="url(#f169osgj4glqk6)" rx="12" ry="12" style="stroke:#A80036;stroke-width:2.0;"/><text fill="#000000" font-family="sans-serif" font-size="14" lengthAdjust="spacing" textLength="24" x="718.5" y="85.5352">IMS</text><path d="M713,44 L713,68 M713,56 L730,56 " fill="none" filter="url(#f169osgj4glqk6)" style="stroke:#A80036;stroke-width:2.0;"/><ellipse cx="742" cy="56" fill="#FEFECE" filter="url(#f169osgj4glqk6)" rx="12" ry="12" style="stroke:#A80036;stroke-width:2.0;"/><text fill="#000000" font-family="sans-serif" font-size="14" lengthAdjust="spacing" textLength="24" x="718.5" y="907.4082">IMS</text><path d="M713,914.3613 L713,938.3613 M713,926.3613 L730,926.3613 " fill="none" filter="url(#f169osgj4glqk6)" style="stroke:#A80036;stroke-width:2.0;"/><ellipse cx="742" cy="926.3613" fill="#FEFECE" filter="url(#f169osgj4glqk6)" rx="12" ry="12" style="stroke:#A80036;stroke-width:2.0;"/><text fill="#000000" font-family="sans-serif" font-size="14" lengthAdjust="spacing" textLength="22" x="778.5" y="85.5352">API</text><path d="M772,44 L772,68 M772,56 L789,56 " fill="none" filter="url(#f169osgj4glqk6)" style="stroke:#A80036;stroke-width:2.0;"/><ellipse cx="801" cy="56" fill="#FEFECE" filter="url(#f169osgj4glqk6)" rx="12" ry="12" style="stroke:#A80036;stroke-width:2.0;"/><text fill="#000000" font-family="sans-serif" font-size="14" lengthAdjust="spacing" textLength="22" x="778.5" y="907.4082">API</text><path d="M772,914.3613 L772,938.3613 M772,926.3613 L789,926.3613 " fill="none" filter="url(#f169osgj4glqk6)" style="stroke:#A80036;stroke-width:2.0;"/><ellipse cx="801" cy="926.3613" fill="#FEFECE" filter="url(#f169osgj4glqk6)" rx="12" ry="12" style="stroke:#A80036;stroke-width:2.0;"/><rect fill="#FFFFFF" filter="url(#f169osgj4glqk6)" height="443.3477" style="stroke:#A80036;stroke-width:1.0;" width="10" x="323.5" y="442.5254"/><polygon fill="#A80036" points="547,131.1094,557,135.1094,547,139.1094,551,135.1094" style="stroke:#A80036;stroke-width:1.0;"/><line style="stroke:#A80036;stroke-width:1.0;" x1="23.5" x2="553" y1="135.1094" y2="135.1094"/><text fill="#000000" font-family="sans-serif" font-size="13" lengthAdjust="spacing" textLength="106" x="30.5" y="115.0566">action that loads</text><text fill="#000000" font-family="sans-serif" font-size="13" lengthAdjust="spacing" textLength="128" x="30.5" y="130.3672">embedded web page</text><polygon fill="#A80036" points="482.5,160.4199,472.5,164.4199,482.5,168.4199,478.5,164.4199" style="stroke:#A80036;stroke-width:1.0;"/><line style="stroke:#A80036;stroke-width:1.0;" x1="476.5" x2="558" y1="164.4199" y2="164.4199"/><text fill="#000000" font-family="sans-serif" font-size="13" lengthAdjust="spacing" textLength="40" x="488.5" y="159.6777">get IJT</text><polygon fill="#A80036" points="721.5,189.7305,731.5,193.7305,721.5,197.7305,725.5,193.7305" style="stroke:#A80036;stroke-width:1.0;"/><line style="stroke:#A80036;stroke-width:1.0;" x1="471.5" x2="727.5" y1="193.7305" y2="193.7305"/><text fill="#000000" font-family="sans-serif" font-size="13" lengthAdjust="spacing" textLength="74" x="478.5" y="188.9883">generate IJT</text><polygon fill="#A80036" points="482.5,219.041,472.5,223.041,482.5,227.041,478.5,223.041" style="stroke:#A80036;stroke-width:1.0;"/><line style="stroke:#A80036;stroke-width:1.0;stroke-dasharray:2.0,2.0;" x1="476.5" x2="732.5" y1="223.041" y2="223.041"/><text fill="#000000" font-family="sans-serif" font-size="13" lengthAdjust="spacing" textLength="16" x="488.5" y="218.2988">IJT</text><polygon fill="#A80036" points="547,248.3516,557,252.3516,547,256.3516,551,252.3516" style="stroke:#A80036;stroke-width:1.0;"/><line style="stroke:#A80036;stroke-width:1.0;stroke-dasharray:2.0,2.0;" x1="471.5" x2="553" y1="252.3516" y2="252.3516"/><text fill="#000000" font-family="sans-serif" font-size="13" lengthAdjust="spacing" textLength="16" x="478.5" y="247.6094">IJT</text><polygon fill="#A80036" points="135.5,292.9727,125.5,296.9727,135.5,300.9727,131.5,296.9727" style="stroke:#A80036;stroke-width:1.0;"/><line style="stroke:#A80036;stroke-width:1.0;" x1="129.5" x2="558" y1="296.9727" y2="296.9727"/><text fill="#000000" font-family="sans-serif" font-size="13" lengthAdjust="spacing" textLength="54" x="141.5" y="276.9199">load app</text><text fill="#000000" font-family="sans-serif" font-size="13" lengthAdjust="spacing" textLength="93" x="141.5" y="292.2305">IJT in fragment</text><line style="stroke:#A80036;stroke-width:1.0;" x1="124.5" x2="166.5" y1="341.5938" y2="341.5938"/><line style="stroke:#A80036;stroke-width:1.0;" x1="166.5" x2="166.5" y1="341.5938" y2="354.5938"/><line style="stroke:#A80036;stroke-width:1.0;" x1="125.5" x2="166.5" y1="354.5938" y2="354.5938"/><polygon fill="#A80036" points="135.5,350.5938,125.5,354.5938,135.5,358.5938,131.5,354.5938" style="stroke:#A80036;stroke-width:1.0;"/><text fill="#000000" font-family="sans-serif" font-size="13" lengthAdjust="spacing" textLength="145" x="131.5" y="321.541">define window.adobeid</text><text fill="#000000" font-family="sans-serif" font-size="13" lengthAdjust="spacing" textLength="138" x="131.5" y="336.8516">(IMSLib configuration)</text><polygon fill="#A80036" points="645,379.9043,655,383.9043,645,387.9043,649,383.9043" style="stroke:#A80036;stroke-width:1.0;"/><line style="stroke:#A80036;stroke-width:1.0;" x1="124.5" x2="651" y1="383.9043" y2="383.9043"/><text fill="#000000" font-family="sans-serif" font-size="13" lengthAdjust="spacing" textLength="70" x="131.5" y="379.1621">load imslib</text><polygon fill="#A80036" points="135.5,409.2148,125.5,413.2148,135.5,417.2148,131.5,413.2148" style="stroke:#A80036;stroke-width:1.0;"/><line style="stroke:#A80036;stroke-width:1.0;stroke-dasharray:2.0,2.0;" x1="129.5" x2="656" y1="413.2148" y2="413.2148"/><text fill="#000000" font-family="sans-serif" font-size="13" lengthAdjust="spacing" textLength="42" x="141.5" y="408.4727">loaded</text><polygon fill="#A80036" points="311.5,438.5254,321.5,442.5254,311.5,446.5254,315.5,442.5254" style="stroke:#A80036;stroke-width:1.0;"/><line style="stroke:#A80036;stroke-width:1.0;stroke-dasharray:2.0,2.0;" x1="124.5" x2="317.5" y1="442.5254" y2="442.5254"/><text fill="#000000" font-family="sans-serif" font-size="13" lengthAdjust="spacing" textLength="82" x="131.5" y="437.7832">script loaded</text><line style="stroke:#A80036;stroke-width:1.0;" x1="333.5" x2="375.5" y1="471.8359" y2="471.8359"/><line style="stroke:#A80036;stroke-width:1.0;" x1="375.5" x2="375.5" y1="471.8359" y2="484.8359"/><line style="stroke:#A80036;stroke-width:1.0;" x1="334.5" x2="375.5" y1="484.8359" y2="484.8359"/><polygon fill="#A80036" points="344.5,480.8359,334.5,484.8359,344.5,488.8359,340.5,484.8359" style="stroke:#A80036;stroke-width:1.0;"/><text fill="#000000" font-family="sans-serif" font-size="13" lengthAdjust="spacing" textLength="54" x="340.5" y="467.0938">initialize</text><polygon fill="#A80036" points="721.5,510.1465,731.5,514.1465,721.5,518.1465,725.5,514.1465" style="stroke:#A80036;stroke-width:1.0;"/><line style="stroke:#A80036;stroke-width:1.0;" x1="333.5" x2="727.5" y1="514.1465" y2="514.1465"/><text fill="#000000" font-family="sans-serif" font-size="13" lengthAdjust="spacing" textLength="77" x="340.5" y="509.4043">consume IJT</text><polygon fill="#A80036" points="344.5,539.457,334.5,543.457,344.5,547.457,340.5,543.457" style="stroke:#A80036;stroke-width:1.0;"/><line style="stroke:#A80036;stroke-width:1.0;stroke-dasharray:2.0,2.0;" x1="338.5" x2="732.5" y1="543.457" y2="543.457"/><text fill="#000000" font-family="sans-serif" font-size="13" lengthAdjust="spacing" textLength="36" x="350.5" y="538.7148">token</text><line style="stroke:#A80036;stroke-width:1.0;stroke-dasharray:2.0,2.0;" x1="333.5" x2="375.5" y1="588.0781" y2="588.0781"/><line style="stroke:#A80036;stroke-width:1.0;stroke-dasharray:2.0,2.0;" x1="375.5" x2="375.5" y1="588.0781" y2="601.0781"/><line style="stroke:#A80036;stroke-width:1.0;stroke-dasharray:2.0,2.0;" x1="334.5" x2="375.5" y1="601.0781" y2="601.0781"/><polygon fill="#A80036" points="344.5,597.0781,334.5,601.0781,344.5,605.0781,340.5,601.0781" style="stroke:#A80036;stroke-width:1.0;"/><text fill="#000000" font-family="sans-serif" font-size="13" lengthAdjust="spacing" textLength="72" x="340.5" y="568.0254">store token</text><text fill="#000000" font-family="sans-serif" font-size="13" lengthAdjust="spacing" textLength="115" x="340.5" y="583.3359">in session storage</text><line style="stroke:#A80036;stroke-width:1.0;stroke-dasharray:2.0,2.0;" x1="333.5" x2="375.5" y1="630.3887" y2="630.3887"/><line style="stroke:#A80036;stroke-width:1.0;stroke-dasharray:2.0,2.0;" x1="375.5" x2="375.5" y1="630.3887" y2="643.3887"/><line style="stroke:#A80036;stroke-width:1.0;stroke-dasharray:2.0,2.0;" x1="334.5" x2="375.5" y1="643.3887" y2="643.3887"/><polygon fill="#A80036" points="344.5,639.3887,334.5,643.3887,344.5,647.3887,340.5,643.3887" style="stroke:#A80036;stroke-width:1.0;"/><text fill="#000000" font-family="sans-serif" font-size="13" lengthAdjust="spacing" textLength="119" x="340.5" y="625.6465">setup auto-refresh</text><polygon fill="#A80036" points="135.5,668.6992,125.5,672.6992,135.5,676.6992,131.5,672.6992" style="stroke:#A80036;stroke-width:1.0;"/><line style="stroke:#A80036;stroke-width:1.0;stroke-dasharray:2.0,2.0;" x1="129.5" x2="322.5" y1="672.6992" y2="672.6992"/><text fill="#000000" font-family="sans-serif" font-size="13" lengthAdjust="spacing" textLength="61" x="141.5" y="667.957">onReady()</text><polygon fill="#A80036" points="311.5,698.0098,321.5,702.0098,311.5,706.0098,315.5,702.0098" style="stroke:#A80036;stroke-width:1.0;"/><line style="stroke:#A80036;stroke-width:1.0;" x1="124.5" x2="317.5" y1="702.0098" y2="702.0098"/><text fill="#000000" font-family="sans-serif" font-size="13" lengthAdjust="spacing" textLength="175" x="131.5" y="697.2676">getProfile:Promise&lt;profile&gt;</text><polygon fill="#A80036" points="721.5,727.3203,731.5,731.3203,721.5,735.3203,725.5,731.3203" style="stroke:#A80036;stroke-width:1.0;"/><line style="stroke:#A80036;stroke-width:1.0;" x1="333.5" x2="727.5" y1="731.3203" y2="731.3203"/><text fill="#000000" font-family="sans-serif" font-size="13" lengthAdjust="spacing" textLength="48" x="340.5" y="726.5781">/profile</text><polygon fill="#A80036" points="344.5,756.6309,334.5,760.6309,344.5,764.6309,340.5,760.6309" style="stroke:#A80036;stroke-width:1.0;"/><line style="stroke:#A80036;stroke-width:1.0;stroke-dasharray:2.0,2.0;" x1="338.5" x2="732.5" y1="760.6309" y2="760.6309"/><text fill="#000000" font-family="sans-serif" font-size="13" lengthAdjust="spacing" textLength="41" x="350.5" y="755.8887">profile</text><line style="stroke:#A80036;stroke-width:1.0;stroke-dasharray:2.0,2.0;" x1="333.5" x2="375.5" y1="805.252" y2="805.252"/><line style="stroke:#A80036;stroke-width:1.0;stroke-dasharray:2.0,2.0;" x1="375.5" x2="375.5" y1="805.252" y2="818.252"/><line style="stroke:#A80036;stroke-width:1.0;stroke-dasharray:2.0,2.0;" x1="334.5" x2="375.5" y1="818.252" y2="818.252"/><polygon fill="#A80036" points="344.5,814.252,334.5,818.252,344.5,822.252,340.5,818.252" style="stroke:#A80036;stroke-width:1.0;"/><text fill="#000000" font-family="sans-serif" font-size="13" lengthAdjust="spacing" textLength="77" x="340.5" y="785.1992">store profile</text><text fill="#000000" font-family="sans-serif" font-size="13" lengthAdjust="spacing" textLength="115" x="340.5" y="800.5098">in session storage</text><polygon fill="#A80036" points="135.5,843.5625,125.5,847.5625,135.5,851.5625,131.5,847.5625" style="stroke:#A80036;stroke-width:1.0;"/><line style="stroke:#A80036;stroke-width:1.0;stroke-dasharray:2.0,2.0;" x1="129.5" x2="322.5" y1="847.5625" y2="847.5625"/><text fill="#000000" font-family="sans-serif" font-size="13" lengthAdjust="spacing" textLength="83" x="141.5" y="842.8203">return profile</text><polygon fill="#A80036" points="34.5,872.873,24.5,876.873,34.5,880.873,30.5,876.873" style="stroke:#A80036;stroke-width:1.0;"/><line style="stroke:#A80036;stroke-width:1.0;stroke-dasharray:2.0,2.0;" x1="28.5" x2="123.5" y1="876.873" y2="876.873"/><text fill="#000000" font-family="sans-serif" font-size="13" lengthAdjust="spacing" textLength="77" x="40.5" y="872.1309">hello {name}</text><!--MD5=[e187cdc0b133dadc44ae5d2eb57c4b3c]
@startuml
actor User as u
entity "Embedded web" as b
entity IMSLib as l
boundary Backend as be
boundary "Desktop app" as a
boundary "IMSLib CDN" as cdn
boundary IMS as i
boundary API as api

u -> a: action that loads\nembedded web page
a -> be: get IJT
be -> i: generate IJT
i - -> be: IJT
be - -> a: IJT
a -> b: load app\nIJT in fragment
b -> b: define window.adobeid\n(IMSLib configuration)
b -> cdn: load imslib
cdn - -> b: loaded
b - -> l: script loaded
activate l
l -> l: initialize
l -> i: consume IJT
i - -> l: token
l - -> l: store token\nin session storage
l - -> l: setup auto-refresh
l - -> b: onReady()
b -> l: getProfile:Promise<profile>
l -> i: /profile
i - -> l: profile
l - ->l: store profile\nin session storage
l - -> b: return profile
b - -> u: hello {name}
@enduml

PlantUML version 1.2022.0(Tue Jan 11 18:16:42 EET 2022)
(GPL source distribution)
Java Runtime: Java(TM) SE Runtime Environment
JVM: Java HotSpot(TM) 64-Bit Server VM
Default Encoding: UTF-8
Language: en
Country: GB
--></g></svg>