<?xml version="1.0" encoding="UTF-8" standalone="no"?><svg xmlns="http://www.w3.org/2000/svg" xmlns:xlink="http://www.w3.org/1999/xlink" contentScriptType="application/ecmascript" contentStyleType="text/css" height="731px" preserveAspectRatio="none" style="width:439px;height:731px;background:#FFFFFF;" version="1.1" viewBox="0 0 439 731" width="439px" zoomAndPan="magnify"><defs><filter height="300%" id="fteii7az7bdhv" width="300%" x="-1" y="-1"><feGaussianBlur result="blurOut" stdDeviation="2.0"/><feColorMatrix in="blurOut" result="blurOut2" type="matrix" values="0 0 0 0 0 0 0 0 0 0 0 0 0 0 0 0 0 0 .4 0"/><feOffset dx="4.0" dy="4.0" in="blurOut2" result="blurOut3"/><feBlend in="SourceGraphic" in2="blurOut3" mode="normal"/></filter></defs><g><ellipse cx="234.9203" cy="16" fill="#000000" filter="url(#fteii7az7bdhv)" rx="10" ry="10" style="stroke:none;stroke-width:1.0;"/><rect fill="#FEFECE" filter="url(#fteii7az7bdhv)" height="34.1328" rx="12.5" ry="12.5" style="stroke:#A80036;stroke-width:1.5;" width="196" x="136.9203" y="67"/><text fill="#000000" font-family="sans-serif" font-size="12" lengthAdjust="spacing" textLength="176" x="146.9203" y="88.6016">Define window.adobeId object</text><rect fill="#FEFECE" filter="url(#fteii7az7bdhv)" height="34.1328" rx="12.5" ry="12.5" style="stroke:#A80036;stroke-width:1.5;" width="88" x="190.9203" y="142"/><text fill="#000000" font-family="sans-serif" font-size="12" lengthAdjust="spacing" textLength="68" x="200.9203" y="163.6016">Load IMSLib</text><polygon fill="#FEFECE" filter="url(#fteii7az7bdhv)" points="234.9203,217,246.9203,229,234.9203,241,222.9203,229,234.9203,217" style="stroke:#A80036;stroke-width:1.5;"/><rect fill="#FEFECE" filter="url(#fteii7az7bdhv)" height="34.1328" rx="12.5" ry="12.5" style="stroke:#A80036;stroke-width:1.5;" width="120" x="112.9203" y="295"/><text fill="#000000" font-family="sans-serif" font-size="12" lengthAdjust="spacing" textLength="100" x="122.9203" y="316.6016">Process fragment</text><polygon fill="#FEFECE" filter="url(#fteii7az7bdhv)" points="172.9203,370,184.9203,382,172.9203,394,160.9203,382,172.9203,370" style="stroke:#A80036;stroke-width:1.5;"/><rect fill="#FEFECE" filter="url(#fteii7az7bdhv)" height="34.1328" rx="12.5" ry="12.5" style="stroke:#A80036;stroke-width:1.5;" width="78" x="194.9203" y="624"/><text fill="#000000" font-family="sans-serif" font-size="12" lengthAdjust="spacing" textLength="58" x="204.9203" y="645.6016">onReady()</text><ellipse cx="233.9203" cy="709" filter="url(#fteii7az7bdhv)" rx="10" ry="10" style="stroke:#000000;stroke-width:1.0;fill:none;"/><ellipse cx="234.4203" cy="709.5" fill="#000000" rx="6" ry="6" style="stroke:none;stroke-width:1.0;"/><rect fill="#FEFECE" filter="url(#fteii7az7bdhv)" height="34.1328" rx="12.5" ry="12.5" style="stroke:#A80036;stroke-width:1.5;" width="71" x="198.4203" y="448"/><text fill="#000000" font-family="sans-serif" font-size="12" lengthAdjust="spacing" textLength="51" x="208.4203" y="469.6016">onError()</text><rect fill="#FEFECE" filter="url(#fteii7az7bdhv)" height="34.1328" rx="12.5" ry="12.5" style="stroke:#A80036;stroke-width:1.5;" width="91" x="253.4203" y="295"/><text fill="#000000" font-family="sans-serif" font-size="12" lengthAdjust="spacing" textLength="71" x="263.4203" y="316.6016">check/token</text><polygon fill="#FEFECE" filter="url(#fteii7az7bdhv)" points="298.9203,370,310.9203,382,298.9203,394,286.9203,382,298.9203,370" style="stroke:#A80036;stroke-width:1.5;"/><rect fill="#FEFECE" filter="url(#fteii7az7bdhv)" height="34.1328" rx="12.5" ry="12.5" style="stroke:#A80036;stroke-width:1.5;" width="136" x="289.9203" y="448"/><text fill="#000000" font-family="sans-serif" font-size="12" lengthAdjust="spacing" textLength="116" x="299.9203" y="469.6016">Store AT and profile</text><rect fill="#FEFECE" filter="url(#fteii7az7bdhv)" height="34.1328" rx="12.5" ry="12.5" style="stroke:#A80036;stroke-width:1.5;" width="129" x="279.4203" y="536"/><text fill="#000000" font-family="sans-serif" font-size="12" lengthAdjust="spacing" textLength="109" x="289.4203" y="557.6016">Setup auto-refresh</text><!--MD5=[97de51bcaf18eaf6b13d771485ebe341]
link start to Define window.adobeId object--><path d="M234.9203,26.18 C234.9203,35.27 234.9203,49.53 234.9203,61.49 " fill="none" id="start-to-Define window.adobeId object" style="stroke:#A80036;stroke-width:1.0;"/><polygon fill="#A80036" points="234.9203,66.79,238.9203,57.79,234.9203,61.79,230.9203,57.79,234.9203,66.79" style="stroke:#A80036;stroke-width:1.0;"/><!--MD5=[d9459ef689f8f2ba0ac1d27daa61887e]
link Define window.adobeId object to Load IMSLib--><path d="M234.9203,101.2 C234.9203,111.69 234.9203,125.46 234.9203,136.82 " fill="none" id="Define window.adobeId object-to-Load IMSLib" style="stroke:#A80036;stroke-width:1.0;"/><polygon fill="#A80036" points="234.9203,141.84,238.9203,132.84,234.9203,136.84,230.9203,132.84,234.9203,141.84" style="stroke:#A80036;stroke-width:1.0;"/><!--MD5=[6fa5645b5934d676cee0c188dfa2cbd6]
link Load IMSLib to #7--><path d="M234.9203,176.12 C234.9203,186.92 234.9203,201.08 234.9203,211.88 " fill="none" id="Load IMSLib-to-#7" style="stroke:#A80036;stroke-width:1.0;"/><polygon fill="#A80036" points="234.9203,216.89,238.9203,207.89,234.9203,211.89,230.9203,207.89,234.9203,216.89" style="stroke:#A80036;stroke-width:1.0;"/><text fill="#000000" font-family="sans-serif" font-size="11" lengthAdjust="spacing" textLength="209" x="6" y="212.1636">URL contains fragment, fromIMS param</text><!--MD5=[900be3e370c88c4999c96c6ce67f85fd]
link #7 to Process fragment--><path d="M230.0503,236.36 C221.2703,247.84 202.3803,272.51 188.7303,290.35 " fill="none" id="#7-to-Process fragment" style="stroke:#A80036;stroke-width:1.0;"/><polygon fill="#A80036" points="185.3803,294.72,194.0292,290.0087,188.4213,290.751,187.6789,285.1431,185.3803,294.72" style="stroke:#A80036;stroke-width:1.0;"/><text fill="#000000" font-family="sans-serif" font-size="11" lengthAdjust="spacing" textLength="22" x="210.9203" y="272.6348">true</text><!--MD5=[365aff21e685659692b1488c8ebe1bfd]
link Process fragment to #12--><path d="M172.9203,329.12 C172.9203,339.92 172.9203,354.08 172.9203,364.88 " fill="none" id="Process fragment-to-#12" style="stroke:#A80036;stroke-width:1.0;"/><polygon fill="#A80036" points="172.9203,369.89,176.9203,360.89,172.9203,364.89,168.9203,360.89,172.9203,369.89" style="stroke:#A80036;stroke-width:1.0;"/><text fill="#000000" font-family="sans-serif" font-size="11" lengthAdjust="spacing" textLength="119" x="34.2109" y="362.684">Processing successful</text><!--MD5=[7f6c6d4c119c515b777fd3fc90d4b014]
link #12 to onReady()--><path d="M174.0103,393.2 C176.0403,411.24 180.8503,449.91 187.9203,482 C198.8403,531.58 216.7703,588.47 226.7103,618.62 " fill="none" id="#12-to-onReady()" style="stroke:#A80036;stroke-width:1.0;"/><polygon fill="#A80036" points="228.3503,623.58,229.2901,613.7761,226.7649,618.838,221.703,616.3128,228.3503,623.58" style="stroke:#A80036;stroke-width:1.0;"/><text fill="#000000" font-family="sans-serif" font-size="11" lengthAdjust="spacing" textLength="22" x="197.9203" y="513.6348">true</text><!--MD5=[1c78a15e6eef32f93381c4e99d63b36d]
link onReady() to end--><path d="M233.9203,658.31 C233.9203,669.24 233.9203,683.47 233.9203,693.9 " fill="none" id="onReady()-to-end" style="stroke:#A80036;stroke-width:1.0;"/><polygon fill="#A80036" points="233.9203,698.97,237.9203,689.97,233.9203,693.97,229.9203,689.97,233.9203,698.97" style="stroke:#A80036;stroke-width:1.0;"/><!--MD5=[7bb04275dd32493c75ea000f41d57eec]
link #12 to onError()--><path d="M177.7103,389.36 C186.3503,400.84 204.9303,425.51 218.3703,443.35 " fill="none" id="#12-to-onError()" style="stroke:#A80036;stroke-width:1.0;"/><polygon fill="#A80036" points="221.6603,447.72,219.4438,438.1238,218.6534,443.7252,213.0521,442.9348,221.6603,447.72" style="stroke:#A80036;stroke-width:1.0;"/><text fill="#000000" font-family="sans-serif" font-size="11" lengthAdjust="spacing" textLength="25" x="206.9203" y="425.6348">false</text><!--MD5=[12336b4ba5a7bd22721ad9761fb389bd]
link onError() to onReady()--><path d="M233.9203,482.06 C233.9203,513.52 233.9203,583.29 233.9203,618.62 " fill="none" id="onError()-to-onReady()" style="stroke:#A80036;stroke-width:1.0;"/><polygon fill="#A80036" points="233.9203,623.98,237.9203,614.98,233.9203,618.98,229.9203,614.98,233.9203,623.98" style="stroke:#A80036;stroke-width:1.0;"/><!--MD5=[719ca85b42c5f3d570472c83e2fa106a]
link #7 to check/token--><path d="M239.9403,236.36 C249.0903,247.94 268.8403,272.93 282.9603,290.8 " fill="none" id="#7-to-check/token" style="stroke:#A80036;stroke-width:1.0;"/><polygon fill="#A80036" points="286.0603,294.72,283.6084,285.1812,282.9561,290.8004,277.3369,290.148,286.0603,294.72" style="stroke:#A80036;stroke-width:1.0;"/><text fill="#000000" font-family="sans-serif" font-size="11" lengthAdjust="spacing" textLength="25" x="268.9203" y="272.6348">false</text><!--MD5=[920d0ebf135503f8882246b2d528134a]
link check/token to #24--><path d="M298.9203,329.12 C298.9203,339.92 298.9203,354.08 298.9203,364.88 " fill="none" id="check/token-to-#24" style="stroke:#A80036;stroke-width:1.0;"/><polygon fill="#A80036" points="298.9203,369.89,302.9203,360.89,298.9203,364.89,294.9203,360.89,298.9203,369.89" style="stroke:#A80036;stroke-width:1.0;"/><text fill="#000000" font-family="sans-serif" font-size="11" lengthAdjust="spacing" textLength="81" x="198.1766" y="359.9289">SSO Successful</text><!--MD5=[16bb7a65a9c66875d43ee6c698ca2ee2]
link #24 to Store AT and profile--><path d="M303.7503,389.63 C312.2203,401.26 330.1003,425.8 343.0003,443.51 " fill="none" id="#24-to-Store AT and profile" style="stroke:#A80036;stroke-width:1.0;"/><polygon fill="#A80036" points="346.1603,447.86,344.0977,438.2296,343.2178,443.8176,337.6298,442.9376,346.1603,447.86" style="stroke:#A80036;stroke-width:1.0;"/><text fill="#000000" font-family="sans-serif" font-size="11" lengthAdjust="spacing" textLength="22" x="330.9203" y="425.6348">true</text><!--MD5=[9730cbbb6b9a443d142a85050613c8b4]
link Store AT and profile to Setup auto-refresh--><path d="M355.2903,482.18 C353.0603,495.87 349.8403,515.61 347.4003,530.61 " fill="none" id="Store AT and profile-to-Setup auto-refresh" style="stroke:#A80036;stroke-width:1.0;"/><polygon fill="#A80036" points="346.5403,535.9,351.9306,527.6572,347.3414,530.9646,344.034,526.3754,346.5403,535.9" style="stroke:#A80036;stroke-width:1.0;"/><!--MD5=[e05d83e743cf64472d4c23840122dcee]
link Setup auto-refresh to onReady()--><path d="M323.2303,570.18 C304.9503,584.47 278.2403,605.35 258.8003,620.55 " fill="none" id="Setup auto-refresh-to-onReady()" style="stroke:#A80036;stroke-width:1.0;"/><polygon fill="#A80036" points="254.5203,623.9,264.0785,621.5248,258.4648,620.8273,259.1622,615.2136,254.5203,623.9" style="stroke:#A80036;stroke-width:1.0;"/><text fill="#000000" font-family="sans-serif" font-size="11" lengthAdjust="spacing" textLength="22" x="295.9203" y="601.6348">true</text><!--MD5=[a8eefd8b42380f1bab721c5d168a6796]
link #24 to onError()--><path d="M293.8203,389.36 C284.5303,400.94 264.4703,425.93 250.1303,443.8 " fill="none" id="#24-to-onError()" style="stroke:#A80036;stroke-width:1.0;"/><polygon fill="#A80036" points="246.9803,447.72,255.7321,443.2027,250.109,443.8198,249.4918,438.1968,246.9803,447.72" style="stroke:#A80036;stroke-width:1.0;"/><text fill="#000000" font-family="sans-serif" font-size="11" lengthAdjust="spacing" textLength="25" x="272.9203" y="425.6348">false</text><!--MD5=[546dd4ca4d50cbd86f1e019b216c182b]
@startuml
(*) -down-> "Define window.adobeId object"
-down-> "Load IMSLib"
if "URL contains fragment, fromIMS param" then
-down->[true] "Process fragment"
if "Processing successful" then
-down->[true] "onReady()"
-down-> (*)
else
-down->[false] "onError()"
-down->"onReady()"
endif
else
-down->[false] "check/token"
if "SSO Successful" then
-down->[true] "Store AT and profile"
-down-> "Setup auto-refresh"
-down->[true] "onReady()"
else
-down->[false] "onError()"
endif
endif
@enduml

PlantUML version 1.2022.0(Tue Jan 11 18:16:42 EET 2022)
(GPL source distribution)
Java Runtime: Java(TM) SE Runtime Environment
JVM: Java HotSpot(TM) 64-Bit Server VM
Default Encoding: UTF-8
Language: en
Country: GB
--></g></svg>