<?xml version="1.0" encoding="UTF-8" standalone="no"?><svg xmlns="http://www.w3.org/2000/svg" xmlns:xlink="http://www.w3.org/1999/xlink" contentScriptType="application/ecmascript" contentStyleType="text/css" height="1340px" preserveAspectRatio="none" style="width:666px;height:1340px;background:#FFFFFF;" version="1.1" viewBox="0 0 666 1340" width="666px" zoomAndPan="magnify"><defs><filter height="300%" id="fx63r9kugqj7l" width="300%" x="-1" y="-1"><feGaussianBlur result="blurOut" stdDeviation="2.0"/><feColorMatrix in="blurOut" result="blurOut2" type="matrix" values="0 0 0 0 0 0 0 0 0 0 0 0 0 0 0 0 0 0 .4 0"/><feOffset dx="4.0" dy="4.0" in="blurOut2" result="blurOut3"/><feBlend in="SourceGraphic" in2="blurOut3" mode="normal"/></filter></defs><g><rect fill="#FFFFFF" filter="url(#fx63r9kugqj7l)" height="306.1055" style="stroke:#A80036;stroke-width:1.0;" width="10" x="335.5" y="265.3516"/><rect fill="#FFFFFF" filter="url(#fx63r9kugqj7l)" height="442.3477" style="stroke:#A80036;stroke-width:1.0;" width="10" x="335.5" y="804.9414"/><line style="stroke:#A80036;stroke-width:1.0;stroke-dasharray:5.0,5.0;" x1="23" x2="23" y1="88.4883" y2="1256.2891"/><line style="stroke:#A80036;stroke-width:1.0;stroke-dasharray:5.0,5.0;" x1="136" x2="136" y1="88.4883" y2="1256.2891"/><line style="stroke:#A80036;stroke-width:1.0;stroke-dasharray:5.0,5.0;" x1="340.5" x2="340.5" y1="88.4883" y2="1256.2891"/><line style="stroke:#A80036;stroke-width:1.0;stroke-dasharray:5.0,5.0;" x1="483.5" x2="483.5" y1="88.4883" y2="1256.2891"/><line style="stroke:#A80036;stroke-width:1.0;stroke-dasharray:5.0,5.0;" x1="559.5" x2="559.5" y1="88.4883" y2="1256.2891"/><line style="stroke:#A80036;stroke-width:1.0;stroke-dasharray:5.0,5.0;" x1="631.5" x2="631.5" y1="88.4883" y2="1256.2891"/><text fill="#000000" font-family="sans-serif" font-size="14" lengthAdjust="spacing" textLength="31" x="5" y="85.5352">User</text><ellipse cx="23.5" cy="15" fill="#FEFECE" filter="url(#fx63r9kugqj7l)" rx="8" ry="8" style="stroke:#A80036;stroke-width:2.0;"/><path d="M23.5,23 L23.5,50 M10.5,31 L36.5,31 M23.5,50 L10.5,65 M23.5,50 L36.5,65 " fill="none" filter="url(#fx63r9kugqj7l)" style="stroke:#A80036;stroke-width:2.0;"/><text fill="#000000" font-family="sans-serif" font-size="14" lengthAdjust="spacing" textLength="31" x="5" y="1268.8242">User</text><ellipse cx="23.5" cy="1281.7773" fill="#FEFECE" filter="url(#fx63r9kugqj7l)" rx="8" ry="8" style="stroke:#A80036;stroke-width:2.0;"/><path d="M23.5,1289.7773 L23.5,1316.7773 M10.5,1297.7773 L36.5,1297.7773 M23.5,1316.7773 L10.5,1331.7773 M23.5,1316.7773 L36.5,1331.7773 " fill="none" filter="url(#fx63r9kugqj7l)" style="stroke:#A80036;stroke-width:2.0;"/><text fill="#000000" font-family="sans-serif" font-size="14" lengthAdjust="spacing" textLength="59" x="104" y="85.5352">Web app</text><ellipse cx="136.5" cy="56" fill="#FEFECE" filter="url(#fx63r9kugqj7l)" rx="12" ry="12" style="stroke:#A80036;stroke-width:2.0;"/><line style="stroke:#A80036;stroke-width:2.0;" x1="124.5" x2="148.5" y1="70" y2="70"/><text fill="#000000" font-family="sans-serif" font-size="14" lengthAdjust="spacing" textLength="59" x="104" y="1268.8242">Web app</text><ellipse cx="136.5" cy="1287.7773" fill="#FEFECE" filter="url(#fx63r9kugqj7l)" rx="12" ry="12" style="stroke:#A80036;stroke-width:2.0;"/><line style="stroke:#A80036;stroke-width:2.0;" x1="124.5" x2="148.5" y1="1301.7773" y2="1301.7773"/><text fill="#000000" font-family="sans-serif" font-size="14" lengthAdjust="spacing" textLength="44" x="315.5" y="85.5352">IMSLib</text><ellipse cx="340.5" cy="56" fill="#FEFECE" filter="url(#fx63r9kugqj7l)" rx="12" ry="12" style="stroke:#A80036;stroke-width:2.0;"/><line style="stroke:#A80036;stroke-width:2.0;" x1="328.5" x2="352.5" y1="70" y2="70"/><text fill="#000000" font-family="sans-serif" font-size="14" lengthAdjust="spacing" textLength="44" x="315.5" y="1268.8242">IMSLib</text><ellipse cx="340.5" cy="1287.7773" fill="#FEFECE" filter="url(#fx63r9kugqj7l)" rx="12" ry="12" style="stroke:#A80036;stroke-width:2.0;"/><line style="stroke:#A80036;stroke-width:2.0;" x1="328.5" x2="352.5" y1="1301.7773" y2="1301.7773"/><text fill="#000000" font-family="sans-serif" font-size="14" lengthAdjust="spacing" textLength="78" x="441.5" y="85.5352">IMSLib CDN</text><path d="M463,44 L463,68 M463,56 L480,56 " fill="none" filter="url(#fx63r9kugqj7l)" style="stroke:#A80036;stroke-width:2.0;"/><ellipse cx="492" cy="56" fill="#FEFECE" filter="url(#fx63r9kugqj7l)" rx="12" ry="12" style="stroke:#A80036;stroke-width:2.0;"/><text fill="#000000" font-family="sans-serif" font-size="14" lengthAdjust="spacing" textLength="78" x="441.5" y="1268.8242">IMSLib CDN</text><path d="M463,1275.7773 L463,1299.7773 M463,1287.7773 L480,1287.7773 " fill="none" filter="url(#fx63r9kugqj7l)" style="stroke:#A80036;stroke-width:2.0;"/><ellipse cx="492" cy="1287.7773" fill="#FEFECE" filter="url(#fx63r9kugqj7l)" rx="12" ry="12" style="stroke:#A80036;stroke-width:2.0;"/><text fill="#000000" font-family="sans-serif" font-size="14" lengthAdjust="spacing" textLength="24" x="545" y="85.5352">IMS</text><path d="M539.5,44 L539.5,68 M539.5,56 L556.5,56 " fill="none" filter="url(#fx63r9kugqj7l)" style="stroke:#A80036;stroke-width:2.0;"/><ellipse cx="568.5" cy="56" fill="#FEFECE" filter="url(#fx63r9kugqj7l)" rx="12" ry="12" style="stroke:#A80036;stroke-width:2.0;"/><text fill="#000000" font-family="sans-serif" font-size="14" lengthAdjust="spacing" textLength="24" x="545" y="1268.8242">IMS</text><path d="M539.5,1275.7773 L539.5,1299.7773 M539.5,1287.7773 L556.5,1287.7773 " fill="none" filter="url(#fx63r9kugqj7l)" style="stroke:#A80036;stroke-width:2.0;"/><ellipse cx="568.5" cy="1287.7773" fill="#FEFECE" filter="url(#fx63r9kugqj7l)" rx="12" ry="12" style="stroke:#A80036;stroke-width:2.0;"/><text fill="#000000" font-family="sans-serif" font-size="14" lengthAdjust="spacing" textLength="30" x="614" y="85.5352">SUSI</text><path d="M611.5,44 L611.5,68 M611.5,56 L628.5,56 " fill="none" filter="url(#fx63r9kugqj7l)" style="stroke:#A80036;stroke-width:2.0;"/><ellipse cx="640.5" cy="56" fill="#FEFECE" filter="url(#fx63r9kugqj7l)" rx="12" ry="12" style="stroke:#A80036;stroke-width:2.0;"/><text fill="#000000" font-family="sans-serif" font-size="14" lengthAdjust="spacing" textLength="30" x="614" y="1268.8242">SUSI</text><path d="M611.5,1275.7773 L611.5,1299.7773 M611.5,1287.7773 L628.5,1287.7773 " fill="none" filter="url(#fx63r9kugqj7l)" style="stroke:#A80036;stroke-width:2.0;"/><ellipse cx="640.5" cy="1287.7773" fill="#FEFECE" filter="url(#fx63r9kugqj7l)" rx="12" ry="12" style="stroke:#A80036;stroke-width:2.0;"/><rect fill="#FFFFFF" filter="url(#fx63r9kugqj7l)" height="306.1055" style="stroke:#A80036;stroke-width:1.0;" width="10" x="335.5" y="265.3516"/><rect fill="#FFFFFF" filter="url(#fx63r9kugqj7l)" height="442.3477" style="stroke:#A80036;stroke-width:1.0;" width="10" x="335.5" y="804.9414"/><polygon fill="#A80036" points="124.5,115.7988,134.5,119.7988,124.5,123.7988,128.5,119.7988" style="stroke:#A80036;stroke-width:1.0;"/><line style="stroke:#A80036;stroke-width:1.0;" x1="23.5" x2="130.5" y1="119.7988" y2="119.7988"/><text fill="#000000" font-family="sans-serif" font-size="13" lengthAdjust="spacing" textLength="54" x="30.5" y="115.0566">load app</text><line style="stroke:#A80036;stroke-width:1.0;" x1="136.5" x2="178.5" y1="164.4199" y2="164.4199"/><line style="stroke:#A80036;stroke-width:1.0;" x1="178.5" x2="178.5" y1="164.4199" y2="177.4199"/><line style="stroke:#A80036;stroke-width:1.0;" x1="137.5" x2="178.5" y1="177.4199" y2="177.4199"/><polygon fill="#A80036" points="147.5,173.4199,137.5,177.4199,147.5,181.4199,143.5,177.4199" style="stroke:#A80036;stroke-width:1.0;"/><text fill="#000000" font-family="sans-serif" font-size="13" lengthAdjust="spacing" textLength="145" x="143.5" y="144.3672">define window.adobeid</text><text fill="#000000" font-family="sans-serif" font-size="13" lengthAdjust="spacing" textLength="138" x="143.5" y="159.6777">(IMSLib configuration)</text><polygon fill="#A80036" points="471.5,202.7305,481.5,206.7305,471.5,210.7305,475.5,206.7305" style="stroke:#A80036;stroke-width:1.0;"/><line style="stroke:#A80036;stroke-width:1.0;" x1="136.5" x2="477.5" y1="206.7305" y2="206.7305"/><text fill="#000000" font-family="sans-serif" font-size="13" lengthAdjust="spacing" textLength="70" x="143.5" y="201.9883">load imslib</text><polygon fill="#A80036" points="147.5,232.041,137.5,236.041,147.5,240.041,143.5,236.041" style="stroke:#A80036;stroke-width:1.0;"/><line style="stroke:#A80036;stroke-width:1.0;stroke-dasharray:2.0,2.0;" x1="141.5" x2="482.5" y1="236.041" y2="236.041"/><text fill="#000000" font-family="sans-serif" font-size="13" lengthAdjust="spacing" textLength="42" x="153.5" y="231.2988">loaded</text><polygon fill="#A80036" points="323.5,261.3516,333.5,265.3516,323.5,269.3516,327.5,265.3516" style="stroke:#A80036;stroke-width:1.0;"/><line style="stroke:#A80036;stroke-width:1.0;stroke-dasharray:2.0,2.0;" x1="136.5" x2="329.5" y1="265.3516" y2="265.3516"/><text fill="#000000" font-family="sans-serif" font-size="13" lengthAdjust="spacing" textLength="82" x="143.5" y="260.6094">script loaded</text><line style="stroke:#A80036;stroke-width:1.0;" x1="345.5" x2="387.5" y1="294.6621" y2="294.6621"/><line style="stroke:#A80036;stroke-width:1.0;" x1="387.5" x2="387.5" y1="294.6621" y2="307.6621"/><line style="stroke:#A80036;stroke-width:1.0;" x1="346.5" x2="387.5" y1="307.6621" y2="307.6621"/><polygon fill="#A80036" points="356.5,303.6621,346.5,307.6621,356.5,311.6621,352.5,307.6621" style="stroke:#A80036;stroke-width:1.0;"/><text fill="#000000" font-family="sans-serif" font-size="13" lengthAdjust="spacing" textLength="54" x="352.5" y="289.9199">initialize</text><polygon fill="#A80036" points="548,332.9727,558,336.9727,548,340.9727,552,336.9727" style="stroke:#A80036;stroke-width:1.0;"/><line style="stroke:#A80036;stroke-width:1.0;" x1="345.5" x2="554" y1="336.9727" y2="336.9727"/><text fill="#000000" font-family="sans-serif" font-size="13" lengthAdjust="spacing" textLength="109" x="352.5" y="332.2305">/check/v6/token</text><polygon fill="#A80036" points="356.5,362.2832,346.5,366.2832,356.5,370.2832,352.5,366.2832" style="stroke:#A80036;stroke-width:1.0;"/><line style="stroke:#A80036;stroke-width:1.0;stroke-dasharray:2.0,2.0;" x1="350.5" x2="559" y1="366.2832" y2="366.2832"/><text fill="#000000" font-family="sans-serif" font-size="13" lengthAdjust="spacing" textLength="111" x="362.5" y="361.541">not authenticated</text><polygon fill="#A80036" points="147.5,391.5938,137.5,395.5938,147.5,399.5938,143.5,395.5938" style="stroke:#A80036;stroke-width:1.0;"/><line style="stroke:#A80036;stroke-width:1.0;stroke-dasharray:2.0,2.0;" x1="141.5" x2="334.5" y1="395.5938" y2="395.5938"/><text fill="#000000" font-family="sans-serif" font-size="13" lengthAdjust="spacing" textLength="61" x="153.5" y="390.8516">onReady()</text><polygon fill="#A80036" points="323.5,420.9043,333.5,424.9043,323.5,428.9043,327.5,424.9043" style="stroke:#A80036;stroke-width:1.0;"/><line style="stroke:#A80036;stroke-width:1.0;" x1="136.5" x2="329.5" y1="424.9043" y2="424.9043"/><text fill="#000000" font-family="sans-serif" font-size="13" lengthAdjust="spacing" textLength="65" x="143.5" y="420.1621">get profile</text><polygon fill="#A80036" points="147.5,450.2148,137.5,454.2148,147.5,458.2148,143.5,454.2148" style="stroke:#A80036;stroke-width:1.0;"/><line style="stroke:#A80036;stroke-width:1.0;stroke-dasharray:2.0,2.0;" x1="141.5" x2="334.5" y1="454.2148" y2="454.2148"/><text fill="#000000" font-family="sans-serif" font-size="13" lengthAdjust="spacing" textLength="61" x="153.5" y="449.4727">no profile</text><polygon fill="#A80036" points="34.5,479.5254,24.5,483.5254,34.5,487.5254,30.5,483.5254" style="stroke:#A80036;stroke-width:1.0;"/><line style="stroke:#A80036;stroke-width:1.0;stroke-dasharray:2.0,2.0;" x1="28.5" x2="135.5" y1="483.5254" y2="483.5254"/><text fill="#000000" font-family="sans-serif" font-size="13" lengthAdjust="spacing" textLength="89" x="40.5" y="478.7832">sign in button</text><polygon fill="#A80036" points="124.5,508.8359,134.5,512.8359,124.5,516.8359,128.5,512.8359" style="stroke:#A80036;stroke-width:1.0;"/><line style="stroke:#A80036;stroke-width:1.0;" x1="23.5" x2="130.5" y1="512.8359" y2="512.8359"/><text fill="#000000" font-family="sans-serif" font-size="13" lengthAdjust="spacing" textLength="43" x="30.5" y="508.0938">sign in</text><polygon fill="#A80036" points="323.5,538.1465,333.5,542.1465,323.5,546.1465,327.5,542.1465" style="stroke:#A80036;stroke-width:1.0;"/><line style="stroke:#A80036;stroke-width:1.0;" x1="136.5" x2="329.5" y1="542.1465" y2="542.1465"/><text fill="#000000" font-family="sans-serif" font-size="13" lengthAdjust="spacing" textLength="47" x="143.5" y="537.4043">signIn()</text><polygon fill="#A80036" points="548,567.457,558,571.457,548,575.457,552,571.457" style="stroke:#A80036;stroke-width:1.0;"/><line style="stroke:#A80036;stroke-width:1.0;" x1="340.5" x2="554" y1="571.457" y2="571.457"/><text fill="#000000" font-family="sans-serif" font-size="13" lengthAdjust="spacing" textLength="66" x="347.5" y="566.7148">/authorize</text><polygon fill="#A80036" points="620,596.7676,630,600.7676,620,604.7676,624,600.7676" style="stroke:#A80036;stroke-width:1.0;"/><line style="stroke:#A80036;stroke-width:1.0;stroke-dasharray:2.0,2.0;" x1="560" x2="626" y1="600.7676" y2="600.7676"/><text fill="#000000" font-family="sans-serif" font-size="13" lengthAdjust="spacing" textLength="48" x="567" y="596.0254">redirect</text><polygon fill="#A80036" points="620,626.0781,630,630.0781,620,634.0781,624,630.0781" style="stroke:#A80036;stroke-width:1.0;"/><line style="stroke:#A80036;stroke-width:1.0;" x1="23.5" x2="626" y1="630.0781" y2="630.0781"/><text fill="#000000" font-family="sans-serif" font-size="13" lengthAdjust="spacing" textLength="43" x="30.5" y="625.3359">sign in</text><polygon fill="#A80036" points="147.5,655.3887,137.5,659.3887,147.5,663.3887,143.5,659.3887" style="stroke:#A80036;stroke-width:1.0;"/><line style="stroke:#A80036;stroke-width:1.0;stroke-dasharray:2.0,2.0;" x1="141.5" x2="631" y1="659.3887" y2="659.3887"/><text fill="#000000" font-family="sans-serif" font-size="13" lengthAdjust="spacing" textLength="48" x="153.5" y="654.6465">redirect</text><line style="stroke:#A80036;stroke-width:1.0;" x1="136.5" x2="178.5" y1="704.0098" y2="704.0098"/><line style="stroke:#A80036;stroke-width:1.0;" x1="178.5" x2="178.5" y1="704.0098" y2="717.0098"/><line style="stroke:#A80036;stroke-width:1.0;" x1="137.5" x2="178.5" y1="717.0098" y2="717.0098"/><polygon fill="#A80036" points="147.5,713.0098,137.5,717.0098,147.5,721.0098,143.5,717.0098" style="stroke:#A80036;stroke-width:1.0;"/><text fill="#000000" font-family="sans-serif" font-size="13" lengthAdjust="spacing" textLength="145" x="143.5" y="683.957">define window.adobeid</text><text fill="#000000" font-family="sans-serif" font-size="13" lengthAdjust="spacing" textLength="138" x="143.5" y="699.2676">(IMSLib configuration)</text><polygon fill="#A80036" points="471.5,742.3203,481.5,746.3203,471.5,750.3203,475.5,746.3203" style="stroke:#A80036;stroke-width:1.0;"/><line style="stroke:#A80036;stroke-width:1.0;" x1="136.5" x2="477.5" y1="746.3203" y2="746.3203"/><text fill="#000000" font-family="sans-serif" font-size="13" lengthAdjust="spacing" textLength="70" x="143.5" y="741.5781">load imslib</text><polygon fill="#A80036" points="147.5,771.6309,137.5,775.6309,147.5,779.6309,143.5,775.6309" style="stroke:#A80036;stroke-width:1.0;"/><line style="stroke:#A80036;stroke-width:1.0;stroke-dasharray:2.0,2.0;" x1="141.5" x2="482.5" y1="775.6309" y2="775.6309"/><text fill="#000000" font-family="sans-serif" font-size="13" lengthAdjust="spacing" textLength="42" x="153.5" y="770.8887">loaded</text><polygon fill="#A80036" points="323.5,800.9414,333.5,804.9414,323.5,808.9414,327.5,804.9414" style="stroke:#A80036;stroke-width:1.0;"/><line style="stroke:#A80036;stroke-width:1.0;stroke-dasharray:2.0,2.0;" x1="136.5" x2="329.5" y1="804.9414" y2="804.9414"/><text fill="#000000" font-family="sans-serif" font-size="13" lengthAdjust="spacing" textLength="82" x="143.5" y="800.1992">script loaded</text><line style="stroke:#A80036;stroke-width:1.0;" x1="345.5" x2="387.5" y1="834.252" y2="834.252"/><line style="stroke:#A80036;stroke-width:1.0;" x1="387.5" x2="387.5" y1="834.252" y2="847.252"/><line style="stroke:#A80036;stroke-width:1.0;" x1="346.5" x2="387.5" y1="847.252" y2="847.252"/><polygon fill="#A80036" points="356.5,843.252,346.5,847.252,356.5,851.252,352.5,847.252" style="stroke:#A80036;stroke-width:1.0;"/><text fill="#000000" font-family="sans-serif" font-size="13" lengthAdjust="spacing" textLength="54" x="352.5" y="829.5098">initialize</text><line style="stroke:#A80036;stroke-width:1.0;" x1="345.5" x2="387.5" y1="891.873" y2="891.873"/><line style="stroke:#A80036;stroke-width:1.0;" x1="387.5" x2="387.5" y1="891.873" y2="904.873"/><line style="stroke:#A80036;stroke-width:1.0;" x1="346.5" x2="387.5" y1="904.873" y2="904.873"/><polygon fill="#A80036" points="356.5,900.873,346.5,904.873,356.5,908.873,352.5,904.873" style="stroke:#A80036;stroke-width:1.0;"/><text fill="#000000" font-family="sans-serif" font-size="13" lengthAdjust="spacing" textLength="82" x="352.5" y="871.8203">read AT from</text><text fill="#000000" font-family="sans-serif" font-size="13" lengthAdjust="spacing" textLength="109" x="352.5" y="887.1309">redirect fragment</text><line style="stroke:#A80036;stroke-width:1.0;stroke-dasharray:2.0,2.0;" x1="345.5" x2="387.5" y1="949.4941" y2="949.4941"/><line style="stroke:#A80036;stroke-width:1.0;stroke-dasharray:2.0,2.0;" x1="387.5" x2="387.5" y1="949.4941" y2="962.4941"/><line style="stroke:#A80036;stroke-width:1.0;stroke-dasharray:2.0,2.0;" x1="346.5" x2="387.5" y1="962.4941" y2="962.4941"/><polygon fill="#A80036" points="356.5,958.4941,346.5,962.4941,356.5,966.4941,352.5,962.4941" style="stroke:#A80036;stroke-width:1.0;"/><text fill="#000000" font-family="sans-serif" font-size="13" lengthAdjust="spacing" textLength="72" x="352.5" y="929.4414">store token</text><text fill="#000000" font-family="sans-serif" font-size="13" lengthAdjust="spacing" textLength="115" x="352.5" y="944.752">in session storage</text><line style="stroke:#A80036;stroke-width:1.0;stroke-dasharray:2.0,2.0;" x1="345.5" x2="387.5" y1="991.8047" y2="991.8047"/><line style="stroke:#A80036;stroke-width:1.0;stroke-dasharray:2.0,2.0;" x1="387.5" x2="387.5" y1="991.8047" y2="1004.8047"/><line style="stroke:#A80036;stroke-width:1.0;stroke-dasharray:2.0,2.0;" x1="346.5" x2="387.5" y1="1004.8047" y2="1004.8047"/><polygon fill="#A80036" points="356.5,1000.8047,346.5,1004.8047,356.5,1008.8047,352.5,1004.8047" style="stroke:#A80036;stroke-width:1.0;"/><text fill="#000000" font-family="sans-serif" font-size="13" lengthAdjust="spacing" textLength="119" x="352.5" y="987.0625">setup auto-refresh</text><polygon fill="#A80036" points="147.5,1030.1152,137.5,1034.1152,147.5,1038.1152,143.5,1034.1152" style="stroke:#A80036;stroke-width:1.0;"/><line style="stroke:#A80036;stroke-width:1.0;stroke-dasharray:2.0,2.0;" x1="141.5" x2="334.5" y1="1034.1152" y2="1034.1152"/><text fill="#000000" font-family="sans-serif" font-size="13" lengthAdjust="spacing" textLength="61" x="153.5" y="1029.373">onReady()</text><polygon fill="#A80036" points="323.5,1059.4258,333.5,1063.4258,323.5,1067.4258,327.5,1063.4258" style="stroke:#A80036;stroke-width:1.0;"/><line style="stroke:#A80036;stroke-width:1.0;" x1="136.5" x2="329.5" y1="1063.4258" y2="1063.4258"/><text fill="#000000" font-family="sans-serif" font-size="13" lengthAdjust="spacing" textLength="175" x="143.5" y="1058.6836">getProfile:Promise&lt;profile&gt;</text><polygon fill="#A80036" points="548,1088.7363,558,1092.7363,548,1096.7363,552,1092.7363" style="stroke:#A80036;stroke-width:1.0;"/><line style="stroke:#A80036;stroke-width:1.0;" x1="345.5" x2="554" y1="1092.7363" y2="1092.7363"/><text fill="#000000" font-family="sans-serif" font-size="13" lengthAdjust="spacing" textLength="48" x="352.5" y="1087.9941">/profile</text><polygon fill="#A80036" points="356.5,1118.0469,346.5,1122.0469,356.5,1126.0469,352.5,1122.0469" style="stroke:#A80036;stroke-width:1.0;"/><line style="stroke:#A80036;stroke-width:1.0;stroke-dasharray:2.0,2.0;" x1="350.5" x2="559" y1="1122.0469" y2="1122.0469"/><text fill="#000000" font-family="sans-serif" font-size="13" lengthAdjust="spacing" textLength="41" x="362.5" y="1117.3047">profile</text><line style="stroke:#A80036;stroke-width:1.0;stroke-dasharray:2.0,2.0;" x1="345.5" x2="387.5" y1="1166.668" y2="1166.668"/><line style="stroke:#A80036;stroke-width:1.0;stroke-dasharray:2.0,2.0;" x1="387.5" x2="387.5" y1="1166.668" y2="1179.668"/><line style="stroke:#A80036;stroke-width:1.0;stroke-dasharray:2.0,2.0;" x1="346.5" x2="387.5" y1="1179.668" y2="1179.668"/><polygon fill="#A80036" points="356.5,1175.668,346.5,1179.668,356.5,1183.668,352.5,1179.668" style="stroke:#A80036;stroke-width:1.0;"/><text fill="#000000" font-family="sans-serif" font-size="13" lengthAdjust="spacing" textLength="77" x="352.5" y="1146.6152">store profile</text><text fill="#000000" font-family="sans-serif" font-size="13" lengthAdjust="spacing" textLength="115" x="352.5" y="1161.9258">in session storage</text><polygon fill="#A80036" points="147.5,1204.9785,137.5,1208.9785,147.5,1212.9785,143.5,1208.9785" style="stroke:#A80036;stroke-width:1.0;"/><line style="stroke:#A80036;stroke-width:1.0;stroke-dasharray:2.0,2.0;" x1="141.5" x2="334.5" y1="1208.9785" y2="1208.9785"/><text fill="#000000" font-family="sans-serif" font-size="13" lengthAdjust="spacing" textLength="83" x="153.5" y="1204.2363">return profile</text><polygon fill="#A80036" points="34.5,1234.2891,24.5,1238.2891,34.5,1242.2891,30.5,1238.2891" style="stroke:#A80036;stroke-width:1.0;"/><line style="stroke:#A80036;stroke-width:1.0;stroke-dasharray:2.0,2.0;" x1="28.5" x2="135.5" y1="1238.2891" y2="1238.2891"/><text fill="#000000" font-family="sans-serif" font-size="13" lengthAdjust="spacing" textLength="77" x="40.5" y="1233.5469">hello {name}</text><!--MD5=[9a60d4041abd4f2a9ab7a69216673ea4]
@startuml
actor User as u
entity "Web app" as b
entity IMSLib as l
boundary "IMSLib CDN" as cdn
boundary IMS as i
boundary SUSI as s

u -> b: load app
b -> b: define window.adobeid\n(IMSLib configuration)
b -> cdn: load imslib
cdn - -> b: loaded
b - -> l: script loaded
activate l
l -> l: initialize
l -> i: /check/v6/token
i - -> l: not authenticated
l - -> b: onReady()
b -> l: get profile
l - -> b: no profile
b - -> u: sign in button
u -> b: sign in
b -> l: signIn()
l -> i: /authorize
deactivate l
i - -> s: redirect
u -> s: sign in
s - -> b: redirect
b -> b: define window.adobeid\n(IMSLib configuration)
b -> cdn: load imslib
cdn - -> b: loaded
b - -> l: script loaded
activate l
l -> l: initialize
l -> l: read AT from \nredirect fragment
l - -> l: store token\nin session storage
l - -> l: setup auto-refresh
l - -> b: onReady()
b -> l: getProfile:Promise<profile>
l -> i: /profile
i - -> l: profile
l - ->l: store profile\nin session storage
l - -> b: return profile
b - -> u: hello {name}

@enduml

PlantUML version 1.2022.0(Tue Jan 11 18:16:42 EET 2022)
(GPL source distribution)
Java Runtime: Java(TM) SE Runtime Environment
JVM: Java HotSpot(TM) 64-Bit Server VM
Default Encoding: UTF-8
Language: en
Country: GB
--></g></svg>